<svg xmlns="http://www.w3.org/2000/svg" width="150" height="150" viewBox="0 0 150 150"><path d="M89.593 41.376h-4.27l4.44 4.818v2.294h-9.148v-2.685h4.44l-4.44-4.82v-2.297h8.978v2.69zm-10.79 0h-4.27l4.44 4.818v2.294h-9.147v-2.685h4.44l-4.44-4.82v-2.297h8.977v2.69zm-10.683.11h-4.608v4.205h4.608v2.8h-7.883v-9.8h7.883v2.8z" fill="#131313"/><path d="M53.958 105.482l-4.683-52.52h51.45l-4.687 52.512-21.07 5.84-21.01-5.832z" fill="#1572B6"/><path d="M75 106.85l17.025-4.72 4.005-44.873H75v49.593z" fill="#33A9DC"/><path d="M75.04 93.014l-.03.008-7.172-1.938-.46-5.137h-6.464l.902 10.11L75.01 99.72l.03-.008v-6.698z" fill="#EBEBEB"/><path fill="#FFF" d="M91.15 63.247H75v6.442h9.112l-.59 6.593H75v6.442h7.95l-.75 8.353-7.183 1.937v6.7l13.205-3.66.095-1.085 1.12-12.52 1.56-17.477"/><path d="M75.022 63.247v6.442H59.464l-.13-1.45-.294-3.266-.154-1.73h16.136zM75 76.287v6.443h-7.082l-.13-1.448-.293-3.266-.154-1.73H75z" fill="#EBEBEB"/></svg>