<svg xmlns="http://www.w3.org/2000/svg" width="150" height="150" viewBox="0 0 150 150"><path d="M89.9 69.376c.612.787 1.264 1.883 1.264 3.457 0 3.8-2.978 6.025-7.29 6.025-1.097 0-2.09-.138-2.705-.31l-1.13 1.815 3.35.204c5.925.38 9.415.552 9.415 5.1 0 3.94-3.456 6.163-9.414 6.163-6.196 0-8.557-1.574-8.557-4.278 0-1.54.685-2.36 1.883-3.492-1.13-.477-1.507-1.333-1.507-2.257 0-.754.377-1.44.992-2.092.617-.644 1.303-1.296 2.124-2.05-1.678-.822-2.944-2.6-2.944-5.135 0-3.937 2.602-6.64 7.838-6.64 1.474 0 2.365.135 3.153.342h6.675v2.91l-3.148.24zm-10.134 15.61c-.445.548-.89 1.13-.89 1.815 0 1.37 1.744 1.78 4.14 1.78 1.987 0 4.692-.136 4.692-1.983 0-1.098-1.302-1.165-2.945-1.267l-4.997-.34zm3.765-15.714c-1.882 0-3.284.925-3.284 3.15 0 1.676.925 2.84 3.186 2.84 1.916 0 3.217-1.128 3.217-2.91 0-2.017-1.166-3.08-3.116-3.08zm11.125 14.456v-2.703l1.746-.24c.48-.068.55-.17.55-.685V70.035c0-.377-.103-.616-.447-.718l-1.848-.652.376-2.77h7.088V80.1c0 .548.034.616.55.685l1.745.24v2.703h-9.758zm4.417-20.573c-1.95 0-3.08-1.132-3.08-3.083 0-1.95 1.13-3.01 3.08-3.01 1.987 0 3.118 1.06 3.118 3.01 0 1.95-1.13 3.083-3.116 3.083zM117.95 82.4c-1.473.718-3.63 1.37-5.582 1.37-4.073 0-5.614-1.643-5.614-5.513v-8.97c0-.205 0-.342-.274-.342h-2.396V65.9c3.014-.345 4.212-1.85 4.587-5.582h3.257v4.862c0 .24 0 .344.273.344h4.826v3.422h-5.1v8.182c0 2.02.478 2.805 2.327 2.805.957 0 1.95-.238 2.772-.545l.925 3.01z" fill="#4E443C"/><path d="M67.226 73.417L51.572 57.765c-.9-.9-2.363-.9-3.265 0l-3.25 3.25 4.123 4.124c.957-.326 2.056-.11 2.82.654.768.768.983 1.877.65 2.837l3.976 3.975c.96-.33 2.07-.115 2.838.654 1.073 1.07 1.073 2.81 0 3.883-1.073 1.074-2.812 1.074-3.886 0-.808-.807-1.006-1.993-.598-2.986l-3.706-3.705v9.75c.262.13.508.303.727.52 1.075 1.074 1.075 2.812 0 3.886-1.07 1.07-2.81 1.07-3.883 0-1.073-1.076-1.073-2.814 0-3.888.267-.264.572-.465.9-.6v-9.84c-.328-.133-.634-.334-.9-.6-.812-.812-1.008-2.005-.59-3.004l-4.066-4.064-10.73 10.733c-.903.902-.903 2.364 0 3.266l15.65 15.655c.9.9 2.36.9 3.265 0l15.58-15.58c.902-.902.902-2.366 0-3.266z" fill="#F14E32"/></svg>