<svg xmlns="http://www.w3.org/2000/svg" width="150" height="150" viewBox="0 0 150 150"><g fill="#DA4648"><path d="M88.197 57.326c-3.53.492-8.217.765-13.194.765s-9.663-.27-13.193-.762c-1.75-.244-3.133-.533-4.113-.855-.233-.077-.63-.21-1.01-.42l2.187 20.133c.102-.347.215-.692.34-1.038.257-.707.555-1.398.892-2.074.337-.673.704-1.31 1.102-1.913.396-.6.82-1.153 1.267-1.66.448-.504.907-.94 1.38-1.304.47-.363.947-.648 1.428-.854s.957-.306 1.43-.306c.542 0 1.067.148 1.575.446.507.297.98.777 1.424 1.442.1.147.165.298.19.45.028.152.042.295.042.43 0 .318-.076.57-.23.753-.15.186-.332.277-.54.277-.192 0-.37-.102-.533-.303-.162-.2-.345-.49-.55-.864-.19-.34-.4-.585-.63-.737-.23-.153-.48-.23-.747-.23-.417 0-.863.174-1.338.52s-.945.805-1.41 1.374c-.466.57-.912 1.22-1.34 1.952-.426.73-.804 1.48-1.133 2.248-.33.768-.59 1.524-.783 2.27-.195.746-.29 1.416-.29 2.01 0 .2.012.402.04.61.025.21.076.397.15.567.075.17.177.31.305.42.13.11.29.165.488.165.22 0 .473-.075.753-.224s.572-.343.873-.583c.3-.24.603-.512.91-.816s.586-.61.85-.922.494-.61.697-.896c.203-.286.355-.535.457-.747l.834-2.494c.102-.27.233-.46.398-.572.165-.113.334-.17.507-.17.082 0 .166.015.25.042.083.03.16.07.224.132s.118.137.156.232c.04.096.06.207.06.334 0 .34-.03.657-.09.954-.06.298-.137.588-.23.87-.092.283-.195.567-.31.855-.112.285-.223.585-.33.896-.024.036-.067.147-.13.335-.063.188-.14.422-.23.705s-.186.6-.29.95-.212.706-.322 1.07-.216.722-.317 1.07-.192.667-.272.95l-.2.71c-.055.19-.087.304-.1.34-.03.113-.077.24-.143.376-.065.14-.144.27-.233.39-.09.124-.19.227-.295.31-.108.08-.22.12-.333.12-.19 0-.33-.063-.416-.19-.086-.128-.13-.36-.13-.7v-.148c0-.048.004-.102.01-.157.006-.113.05-.326.135-.638.084-.31.185-.662.3-1.055s.243-.8.377-1.22l.363-1.13c-.318.354-.66.706-1.03 1.056s-.75.663-1.14.942c-.387.278-.777.507-1.172.684-.394.177-.772.265-1.137.265-.416 0-.776-.093-1.08-.276-.052-.033-.103-.07-.154-.107L60.69 95.14c.316.792 6.28 2.743 14.147 2.743 7.87 0 13.837-1.953 14.148-2.747l1.75-15.172c-.147.133-.287.262-.422.388-.5.467-.975.868-1.42 1.204-.444.336-.88.596-1.303.78s-.878.274-1.36.274c-.455 0-.806-.097-1.053-.295-.25-.197-.373-.47-.373-.816v-.08c0-.025.003-.057.01-.09.023-.214.116-.458.277-.73.16-.28.355-.565.58-.86.23-.3.47-.6.73-.9.255-.308.492-.595.71-.868.22-.27.4-.52.542-.747s.216-.41.216-.552c0-.084-.03-.152-.09-.2-.06-.05-.156-.075-.294-.075-.24 0-.485.06-.74.185-.252.123-.503.29-.75.498-.25.21-.49.448-.726.718-.237.267-.458.546-.664.837-.206.29-.394.58-.563.875-.17.293-.315.563-.435.81-.035.08-.086.19-.152.33-.065.142-.137.3-.215.478-.077.177-.16.36-.246.546-.086.188-.166.364-.237.53l-.192.445-.12.272c-.03.062-.08.184-.148.36-.07.177-.147.384-.237.62l-.282.748-.277.743-.227.615c-.066.176-.108.297-.127.36-.06.185-.13.356-.21.52-.08.163-.173.306-.277.43-.106.124-.226.223-.36.298-.135.074-.285.11-.45.11-.217 0-.394-.052-.534-.153-.14-.103-.21-.3-.21-.59 0-.14.017-.285.053-.434s.08-.297.134-.44.108-.288.165-.426.11-.27.155-.397c.323-.707.65-1.416.986-2.127.335-.71.655-1.413.963-2.11.064-.145.123-.287.186-.432l-.057.055c-.39.375-.774.706-1.16.992-.385.287-.767.515-1.145.685-.38.168-.75.254-1.108.254-.244 0-.45-.04-.613-.117s-.296-.184-.395-.318c-.1-.137-.17-.296-.21-.48-.015-.063-.023-.13-.033-.194-.105.08-.21.16-.317.236-.37.26-.734.472-1.093.63-.357.16-.68.24-.967.24-.287 0-.52-.096-.7-.287-.178-.19-.267-.516-.267-.976 0-.325.047-.704.142-1.135-.155.276-.35.556-.582.838-.23.282-.497.54-.796.774-.3.232-.633.422-1.003.567-.37.145-.77.218-1.207.218-.197 0-.386-.025-.568-.074-.183-.05-.342-.137-.48-.258-.136-.12-.246-.28-.33-.482-.084-.2-.125-.453-.125-.757 0-.006.01-.114.034-.323.025-.21.1-.54.23-.988.13-.45.327-1.03.596-1.745.267-.716.645-1.58 1.136-2.6.125-.27.27-.462.434-.578.166-.116.343-.175.534-.175.083 0 .17.012.26.037s.173.062.25.116c.078.053.14.12.19.2.047.08.07.176.07.28 0 .07-.01.14-.026.203-.03.12-.094.276-.192.47s-.214.418-.345.67c-.13.25-.27.52-.415.81-.146.29-.28.59-.407.903-.125.31-.232.627-.322.95-.09.32-.14.634-.152.937 0 .128.03.243.09.35.06.106.16.16.297.16.387 0 .757-.128 1.11-.382.35-.256.676-.572.975-.95s.568-.784.81-1.22c.242-.436.444-.832.605-1.193.113-.24.213-.5.3-.774.087-.275.18-.53.282-.763.1-.234.217-.43.35-.584.13-.156.294-.234.49-.234.216 0 .386.08.51.243.127.163.19.356.19.583 0 .128-.04.304-.12.526-.08.223-.183.477-.306.764-.122.286-.255.592-.398.917-.145.324-.278.655-.4.99-.122.337-.224.666-.304.987-.08.32-.12.62-.12.896 0 .256.13.383.393.383.185 0 .414-.065.69-.19.273-.13.56-.308.862-.537.075-.058.15-.117.227-.18.083-.348.182-.67.296-.96.21-.553.422-1.1.637-1.645l.59-1.496 2.714-6.842c.108-.275.254-.47.436-.584.182-.112.365-.17.55-.17.186 0 .355.06.507.182.15.12.23.314.23.582 0 .128-.027.262-.078.404-.05.14-.115.293-.193.455-.15.332-.327.74-.533 1.22-.207.48-.428 1.004-.664 1.57-.235.564-.478 1.153-.725 1.765l-.726 1.786c-.235.58-.457 1.13-.663 1.65l-.53 1.353c-.065.163-.13.353-.192.567-.062.215-.094.407-.094.577 0 .105.018.19.053.254.036.066.105.098.207.098.125 0 .28-.043.47-.132.188-.09.39-.205.608-.35.22-.145.447-.31.683-.5s.47-.38.703-.582c.233-.2.455-.402.667-.604.212-.202.402-.388.568-.558.04-.04.088-.07.14-.09.1-.302.19-.597.273-.886.048-.127.113-.308.197-.54s.18-.464.286-.69.23-.422.36-.59c.135-.165.28-.248.436-.248.238 0 .412.055.52.164.107.11.16.27.16.482 0 .043-.006.11-.018.202s-.026.19-.045.292c-.018.102-.037.2-.058.29-.02.093-.04.16-.06.203.222-.24.46-.48.717-.716.256-.237.52-.45.796-.643.274-.19.555-.345.842-.466.285-.12.572-.18.858-.18.196 0 .393.028.587.085.193.055.367.14.52.25s.275.246.37.412.144.36.144.58c0 .288-.074.6-.22.927-.147.33-.33.66-.55.99-.223.333-.46.656-.72.97-.256.315-.496.6-.72.86-.225.26-.413.477-.565.656-.15.18-.23.303-.236.366 0 .086.027.154.08.208.055.053.144.08.27.08.1 0 .25-.058.447-.17s.473-.31.828-.59.807-.653 1.352-1.124c.375-.322.814-.706 1.31-1.143l2.366-21.933c-.38.21-.777.342-1.012.42-.99.326-2.375.615-4.124.86z"/><path d="M74.83 98.736c-4.812 0-8.53-.723-10.316-1.153-1.223-.294-2.204-.6-2.95-.912l2.385 4.076.93 12.726c0 1.428 4.532 2.584 10.122 2.584s10.123-1.156 10.123-2.583l.738-12.863 2.256-3.946c-.75.318-1.74.627-2.977.925-1.79.43-5.505 1.15-10.315 1.15zm7.838-46.382l1.61-6.532 9.213-9.727.01-.01c.196-.22-.2-.902-.855-1.487-.657-.586-1.366-.784-1.586-.56-.003 0-.004.002-.006.003l-9.83 10.347L79.2 52.19c-1.355-.042-2.76-.068-4.21-.068-10.24 0-18.54 1.145-18.54 2.558 0 1.412 8.3 2.557 18.54 2.557 10.237 0 18.538-1.145 18.538-2.557 0-1.035-4.46-1.923-10.86-2.326zm-2.48 3.672c-1.217 0-2.203-.27-2.203-.6 0-.14.18-.266.472-.368l-.026.102c-.01.018-.013.035-.013.054 0 .214.793.388 1.773.388.98 0 1.772-.174 1.772-.388l.033-.13c.25.096.397.214.397.34.002.334-.985.602-2.202.602z"/></g></svg>