<svg xmlns="http://www.w3.org/2000/svg" width="150" height="150" viewBox="0 0 150 150"><path fill="#E44D26" d="M53.957 105.48l-4.683-52.52h51.452l-4.688 52.51-21.07 5.842"/><path fill="#F16529" d="M75 106.848l17.024-4.72 4.006-44.873H75"/><path fill="#EBEBEB" d="M75 76.733h-8.524l-.588-6.595h9.11v-6.442H58.85l.155 1.73 1.582 17.75H75m0 10.284l-.028.01-7.174-1.938-.46-5.138h-6.465l.903 10.113 13.194 3.664.03-.005"/><path d="M54.062 38.688h3.273v3.234h2.994v-3.234h3.27v9.793h-3.27v-3.276h-2.996v3.28H54.06V38.69zm13.844 3.25h-2.88V38.69h9.036v3.247H71.18v6.545h-3.274v-6.545zm7.59-3.25h3.414l2.1 3.44 2.098-3.44h3.414v9.793h-3.26v-4.85l-2.252 3.48h-.056L78.7 43.628v4.854h-3.203v-9.794zm12.654 0h3.274v6.557h4.604v3.236H88.15v-9.79z"/><path fill="#FFF" d="M74.978 76.733v6.442h7.93l-.747 8.353-7.18 1.938v6.702l13.204-3.66.097-1.09 1.51-16.956.16-1.73h-1.735M74.978 63.696v6.442h15.557l.13-1.45.293-3.263.155-1.73"/></svg>