<svg xmlns="http://www.w3.org/2000/svg" width="150" height="150" viewBox="0 0 150 150"><path fill="#F7DF1E" d="M47.97 48.97H101V102H47.97z"/><path d="M83.594 90.4c1.068 1.744 2.457 3.026 4.915 3.026 2.062 0 3.38-1.032 3.38-2.46 0-1.707-1.354-2.31-3.626-3.308l-1.247-.533c-3.596-1.53-5.984-3.452-5.984-7.51 0-3.735 2.847-6.58 7.296-6.58 3.17 0 5.445 1.103 7.09 3.99l-3.883 2.49c-.854-1.532-1.775-2.136-3.208-2.136-1.46 0-2.385.923-2.385 2.134 0 1.494.926 2.1 3.064 3.025l1.243.533c4.235 1.816 6.627 3.668 6.627 7.828 0 4.487-3.524 6.946-8.26 6.946-4.626 0-7.616-2.205-9.08-5.096l4.05-2.35zm-17.604.432c.783 1.39 1.495 2.563 3.207 2.563 1.637 0 2.67-.64 2.67-3.132V73.318h4.982v17.014c0 5.16-3.028 7.508-7.444 7.508-3.99 0-6.3-2.064-7.475-4.553l4.058-2.455z"/></svg>